<mxfile host="app.diagrams.net" modified="2021-07-08T13:15:04.189Z" agent="5.0 (X11; Linux x86_64) AppleWebKit/537.36 (KHTML, like Gecko) Chrome/75.0.3770.100 Safari/537.36" etag="TAb6WrZpMgOjVkW9J3P7" version="14.8.5" type="github">
  <diagram id="C5RBs43oDa-KdzZeNtuy" name="Page-1">
    <mxGraphModel dx="2424" dy="728" grid="1" gridSize="10" guides="1" tooltips="1" connect="1" arrows="1" fold="1" page="1" pageScale="1" pageWidth="827" pageHeight="1169" math="0" shadow="0">
      <root>
        <mxCell id="WIyWlLk6GJQsqaUBKTNV-0" />
        <mxCell id="WIyWlLk6GJQsqaUBKTNV-1" parent="WIyWlLk6GJQsqaUBKTNV-0" />
        <mxCell id="zCzx_h1yMqGqnXhKD-fG-0" value="&lt;font style=&quot;font-size: 20px&quot;&gt;Rotation&lt;/font&gt;" style="rounded=0;whiteSpace=wrap;html=1;fontSize=20;" parent="WIyWlLk6GJQsqaUBKTNV-1" vertex="1">
          <mxGeometry x="263" y="163.5" width="150" height="74" as="geometry" />
        </mxCell>
        <mxCell id="zCzx_h1yMqGqnXhKD-fG-2" value="" style="endArrow=none;html=1;entryX=0;entryY=0.25;entryDx=0;entryDy=0;" parent="WIyWlLk6GJQsqaUBKTNV-1" edge="1">
          <mxGeometry width="50" height="50" relative="1" as="geometry">
            <mxPoint x="223" y="173.5" as="sourcePoint" />
            <mxPoint x="263" y="173" as="targetPoint" />
          </mxGeometry>
        </mxCell>
        <mxCell id="zCzx_h1yMqGqnXhKD-fG-3" value="" style="endArrow=none;html=1;entryX=0;entryY=0.25;entryDx=0;entryDy=0;" parent="WIyWlLk6GJQsqaUBKTNV-1" edge="1">
          <mxGeometry width="50" height="50" relative="1" as="geometry">
            <mxPoint x="223" y="201.5" as="sourcePoint" />
            <mxPoint x="263" y="201" as="targetPoint" />
          </mxGeometry>
        </mxCell>
        <mxCell id="zCzx_h1yMqGqnXhKD-fG-4" value="" style="endArrow=none;html=1;entryX=0;entryY=0.25;entryDx=0;entryDy=0;" parent="WIyWlLk6GJQsqaUBKTNV-1" edge="1">
          <mxGeometry width="50" height="50" relative="1" as="geometry">
            <mxPoint x="223" y="228" as="sourcePoint" />
            <mxPoint x="263" y="227.5" as="targetPoint" />
          </mxGeometry>
        </mxCell>
        <mxCell id="zCzx_h1yMqGqnXhKD-fG-5" value="" style="endArrow=none;html=1;" parent="WIyWlLk6GJQsqaUBKTNV-1" edge="1">
          <mxGeometry width="50" height="50" relative="1" as="geometry">
            <mxPoint x="238" y="178.5" as="sourcePoint" />
            <mxPoint x="248" y="168.5" as="targetPoint" />
          </mxGeometry>
        </mxCell>
        <mxCell id="zCzx_h1yMqGqnXhKD-fG-6" value="valid" style="text;html=1;align=center;verticalAlign=middle;resizable=0;points=[];autosize=1;strokeColor=none;" parent="WIyWlLk6GJQsqaUBKTNV-1" vertex="1">
          <mxGeometry x="222" y="182.5" width="40" height="20" as="geometry" />
        </mxCell>
        <mxCell id="zCzx_h1yMqGqnXhKD-fG-8" value="ready" style="text;html=1;align=center;verticalAlign=middle;resizable=0;points=[];autosize=1;strokeColor=none;" parent="WIyWlLk6GJQsqaUBKTNV-1" vertex="1">
          <mxGeometry x="217" y="209.5" width="50" height="20" as="geometry" />
        </mxCell>
        <mxCell id="zCzx_h1yMqGqnXhKD-fG-9" value="in" style="text;html=1;align=center;verticalAlign=middle;resizable=0;points=[];autosize=1;strokeColor=none;" parent="WIyWlLk6GJQsqaUBKTNV-1" vertex="1">
          <mxGeometry x="232" y="150.5" width="20" height="20" as="geometry" />
        </mxCell>
        <mxCell id="zCzx_h1yMqGqnXhKD-fG-10" value="" style="endArrow=none;html=1;entryX=0;entryY=0.25;entryDx=0;entryDy=0;" parent="WIyWlLk6GJQsqaUBKTNV-1" edge="1">
          <mxGeometry width="50" height="50" relative="1" as="geometry">
            <mxPoint x="413" y="173" as="sourcePoint" />
            <mxPoint x="453" y="172.5" as="targetPoint" />
          </mxGeometry>
        </mxCell>
        <mxCell id="zCzx_h1yMqGqnXhKD-fG-11" value="" style="endArrow=none;html=1;entryX=0;entryY=0.25;entryDx=0;entryDy=0;" parent="WIyWlLk6GJQsqaUBKTNV-1" edge="1">
          <mxGeometry width="50" height="50" relative="1" as="geometry">
            <mxPoint x="413" y="201" as="sourcePoint" />
            <mxPoint x="453" y="200.5" as="targetPoint" />
          </mxGeometry>
        </mxCell>
        <mxCell id="zCzx_h1yMqGqnXhKD-fG-12" value="" style="endArrow=none;html=1;entryX=0;entryY=0.25;entryDx=0;entryDy=0;" parent="WIyWlLk6GJQsqaUBKTNV-1" edge="1">
          <mxGeometry width="50" height="50" relative="1" as="geometry">
            <mxPoint x="413" y="227.5" as="sourcePoint" />
            <mxPoint x="453" y="227" as="targetPoint" />
          </mxGeometry>
        </mxCell>
        <mxCell id="zCzx_h1yMqGqnXhKD-fG-13" value="" style="endArrow=none;html=1;" parent="WIyWlLk6GJQsqaUBKTNV-1" edge="1">
          <mxGeometry width="50" height="50" relative="1" as="geometry">
            <mxPoint x="428" y="178" as="sourcePoint" />
            <mxPoint x="438" y="168" as="targetPoint" />
          </mxGeometry>
        </mxCell>
        <mxCell id="zCzx_h1yMqGqnXhKD-fG-14" value="valid" style="text;html=1;align=center;verticalAlign=middle;resizable=0;points=[];autosize=1;strokeColor=none;" parent="WIyWlLk6GJQsqaUBKTNV-1" vertex="1">
          <mxGeometry x="412" y="182" width="40" height="20" as="geometry" />
        </mxCell>
        <mxCell id="zCzx_h1yMqGqnXhKD-fG-15" value="ready" style="text;html=1;align=center;verticalAlign=middle;resizable=0;points=[];autosize=1;strokeColor=none;" parent="WIyWlLk6GJQsqaUBKTNV-1" vertex="1">
          <mxGeometry x="407" y="209" width="50" height="20" as="geometry" />
        </mxCell>
        <mxCell id="zCzx_h1yMqGqnXhKD-fG-16" value="out" style="text;html=1;align=center;verticalAlign=middle;resizable=0;points=[];autosize=1;strokeColor=none;" parent="WIyWlLk6GJQsqaUBKTNV-1" vertex="1">
          <mxGeometry x="417" y="150" width="30" height="20" as="geometry" />
        </mxCell>
        <mxCell id="zCzx_h1yMqGqnXhKD-fG-17" value="&lt;p&gt;&lt;font&gt;&lt;span style=&quot;font-size: 18px&quot;&gt;&lt;b&gt;&amp;nbsp;waitingInput&lt;/b&gt;&lt;/span&gt;&lt;/font&gt;&lt;/p&gt;&lt;font&gt;&lt;font style=&quot;font-size: 12px&quot;&gt;in.ready := true&lt;br&gt;&lt;/font&gt;&lt;span&gt;dataReg := in&lt;/span&gt;&lt;br&gt;&lt;/font&gt;" style="ellipse;whiteSpace=wrap;html=1;align=center;" parent="WIyWlLk6GJQsqaUBKTNV-1" vertex="1">
          <mxGeometry x="274" y="280" width="126" height="110" as="geometry" />
        </mxCell>
        <mxCell id="zCzx_h1yMqGqnXhKD-fG-18" value="&lt;font style=&quot;font-size: 18px&quot;&gt;&amp;nbsp;&lt;b&gt;computing&lt;/b&gt;&lt;br&gt;&lt;span style=&quot;font-size: 10px&quot;&gt;cyclicShift(dataReg)&lt;/span&gt;&lt;br&gt;&lt;/font&gt;" style="ellipse;whiteSpace=wrap;html=1;" parent="WIyWlLk6GJQsqaUBKTNV-1" vertex="1">
          <mxGeometry x="420" y="440" width="126" height="110" as="geometry" />
        </mxCell>
        <mxCell id="zCzx_h1yMqGqnXhKD-fG-20" value="" style="curved=1;endArrow=classic;html=1;exitX=0.993;exitY=0.444;exitDx=0;exitDy=0;exitPerimeter=0;entryX=0.414;entryY=-0.014;entryDx=0;entryDy=0;entryPerimeter=0;" parent="WIyWlLk6GJQsqaUBKTNV-1" source="zCzx_h1yMqGqnXhKD-fG-17" target="zCzx_h1yMqGqnXhKD-fG-18" edge="1">
          <mxGeometry width="50" height="50" relative="1" as="geometry">
            <mxPoint x="324" y="350" as="sourcePoint" />
            <mxPoint x="433" y="373" as="targetPoint" />
            <Array as="points">
              <mxPoint x="430" y="340" />
              <mxPoint x="470" y="380" />
            </Array>
          </mxGeometry>
        </mxCell>
        <mxCell id="zCzx_h1yMqGqnXhKD-fG-21" value="in.valid?" style="text;html=1;align=center;verticalAlign=middle;resizable=0;points=[];autosize=1;strokeColor=none;" parent="WIyWlLk6GJQsqaUBKTNV-1" vertex="1">
          <mxGeometry x="457" y="351" width="60" height="20" as="geometry" />
        </mxCell>
        <mxCell id="zCzx_h1yMqGqnXhKD-fG-23" value="" style="curved=1;endArrow=classic;html=1;exitX=1;exitY=0;exitDx=0;exitDy=0;entryX=0.977;entryY=0.635;entryDx=0;entryDy=0;entryPerimeter=0;" parent="WIyWlLk6GJQsqaUBKTNV-1" source="zCzx_h1yMqGqnXhKD-fG-18" target="zCzx_h1yMqGqnXhKD-fG-18" edge="1">
          <mxGeometry width="50" height="50" relative="1" as="geometry">
            <mxPoint x="550" y="410" as="sourcePoint" />
            <mxPoint x="600" y="460" as="targetPoint" />
            <Array as="points">
              <mxPoint x="570" y="440" />
              <mxPoint x="590" y="500" />
            </Array>
          </mxGeometry>
        </mxCell>
        <mxCell id="zCzx_h1yMqGqnXhKD-fG-24" value="N times" style="text;html=1;align=center;verticalAlign=middle;resizable=0;points=[];autosize=1;strokeColor=none;" parent="WIyWlLk6GJQsqaUBKTNV-1" vertex="1">
          <mxGeometry x="580" y="450" width="60" height="20" as="geometry" />
        </mxCell>
        <mxCell id="zCzx_h1yMqGqnXhKD-fG-25" value="&lt;p&gt;&lt;font style=&quot;font-size: 18px&quot;&gt;&lt;b&gt;&amp;nbsp;waitingOutput&lt;/b&gt;&lt;/font&gt;&lt;/p&gt;&lt;div&gt;&lt;font style=&quot;font-size: 12px&quot;&gt;out.valid := true&lt;/font&gt;&lt;/div&gt;&lt;div&gt;&lt;font style=&quot;font-size: 12px&quot;&gt;out := dataReg&lt;/font&gt;&lt;/div&gt;" style="ellipse;whiteSpace=wrap;html=1;align=center;" parent="WIyWlLk6GJQsqaUBKTNV-1" vertex="1">
          <mxGeometry x="120" y="440" width="136" height="120" as="geometry" />
        </mxCell>
        <mxCell id="zCzx_h1yMqGqnXhKD-fG-26" value="" style="curved=1;endArrow=classic;html=1;entryX=0.958;entryY=0.761;entryDx=0;entryDy=0;exitX=0.107;exitY=0.858;exitDx=0;exitDy=0;exitPerimeter=0;entryPerimeter=0;" parent="WIyWlLk6GJQsqaUBKTNV-1" source="zCzx_h1yMqGqnXhKD-fG-18" target="zCzx_h1yMqGqnXhKD-fG-25" edge="1">
          <mxGeometry width="50" height="50" relative="1" as="geometry">
            <mxPoint x="442" y="481" as="sourcePoint" />
            <mxPoint x="360" y="539" as="targetPoint" />
            <Array as="points">
              <mxPoint x="390" y="560" />
              <mxPoint x="310" y="560" />
            </Array>
          </mxGeometry>
        </mxCell>
        <mxCell id="zCzx_h1yMqGqnXhKD-fG-30" value="completed?" style="text;html=1;align=center;verticalAlign=middle;resizable=0;points=[];autosize=1;strokeColor=none;" parent="WIyWlLk6GJQsqaUBKTNV-1" vertex="1">
          <mxGeometry x="300" y="565" width="80" height="20" as="geometry" />
        </mxCell>
        <mxCell id="zCzx_h1yMqGqnXhKD-fG-36" value="" style="curved=1;endArrow=classic;html=1;entryX=0;entryY=0.5;entryDx=0;entryDy=0;exitX=0.407;exitY=-0.008;exitDx=0;exitDy=0;exitPerimeter=0;" parent="WIyWlLk6GJQsqaUBKTNV-1" source="zCzx_h1yMqGqnXhKD-fG-25" target="zCzx_h1yMqGqnXhKD-fG-17" edge="1">
          <mxGeometry width="50" height="50" relative="1" as="geometry">
            <mxPoint x="229" y="498" as="sourcePoint" />
            <mxPoint x="196" y="393" as="targetPoint" />
            <Array as="points">
              <mxPoint x="181" y="410" />
              <mxPoint x="210" y="360" />
            </Array>
          </mxGeometry>
        </mxCell>
        <mxCell id="zCzx_h1yMqGqnXhKD-fG-37" value="out.ready?" style="text;html=1;align=center;verticalAlign=middle;resizable=0;points=[];autosize=1;strokeColor=none;" parent="WIyWlLk6GJQsqaUBKTNV-1" vertex="1">
          <mxGeometry x="130" y="360" width="70" height="20" as="geometry" />
        </mxCell>
        <mxCell id="zCzx_h1yMqGqnXhKD-fG-39" value="" style="shape=image;verticalLabelPosition=bottom;labelBackgroundColor=#ffffff;verticalAlign=top;aspect=fixed;imageAspect=0;image=data:image/png,iVBORw0KGgoAAAANSUhEUgAAA7UAAACsCAIAAAArChysAAAgAElEQVR4Ae3dB1hTVxsH8HMTQAgzTNkgDkCxKLhaB07qqFhcVbRWbWu1rrbO1tVW66oVZ621wz2q1br1UxFptQ6cdS9kKYoMIaCQ5H5PCCE3JDeLBBL85+lTbs499z3v+d0DHg6HC5Wb94IQmuAFAbMRoMwmUyQKAQhAAAIQgIAZCnDMMGekDAEIQAACEIAABCAAAWMJYH5sLFnEhQAEIAABCEAAAhAwRwHMj83xriFnCEAAAhCAAAQgAAFjCegyPxbd+HFIzJzEQsPkIrq5akDnGYklhomGKBCAAAQgAAEIQAACEDCEANv8WJx9/rcvR/Tp1PbN1h26xQybvP5KEeEERI/5bEBTniHaRQwIGEeAzjvwRVSf+KvC8vCvznzXvVXPeWdelb8Xp274oMNHWzLFxmkeUSEAAQhAAAIQMHsBC5U9oJ8fnDdtJ/Xxwu0r69sUPUu980DkY00oTr03o1TWRyEETEWAcohsHbJg77lH4qZBHEJKriWdpfnif09eKWnT0ooQOif5/APfVq3qsn1naCr9QB4QgAAEIAABCNSUgOpZgjj38RNhvbZdG7vxrO1cfUPf7BDmwiGMHRElaceWjIntFNWxW98xiw/smP3OuF3PaEmFwe8vO7BjzoiYzlEdOsZ8NO9gStn+CfHz0z9+9n5s9+iunbr2+WjR0TTZ4p6k2+KsU6s/e69XdKdOUZ37jJh3BCt7NTUYake7HLcWrQJTz194KlkhLr1x6oxFl6HR1mdOXS0bioJL5264tmzlz5GOyXe7R3fp1DVGMiZLUn77oMPH2yqGX+GJmdG9F51/RYg458L6GcN6v92ta8+BE1afeiwdveXjtlunTh0wbmvH0EEvIAABCEAAAlIB1fNjrn+HbkE3fv167bHbuaXKVKL7m2fOO+s3YcvRhMPrv2h0ZvPhXNlPq4X3dmxJ7Txvx7GEoxtHuf2z5McTL2hCOA6+LfvNWPfX4f8d/n2Ew4klv52V/bSbkNKL6xcdcxu76dCJEyf2rZk6KAIre8riKNFBgOPbqpXHnbMXC2giup10prRF+5gOranTiddLCSn57/xV68hWjSzKx+Qvfx0+Vj4mz3t079X4zpGjqWVjmc77++AZx269mtURp+2cMW0fb/javUePbJlS78zXM7aniCXj9vdFx1zHbjp84kQCxq0OtwdVIQABCEAAAiYvoLC/IvniRUJIRPPmxLLhByvX+W9dv3XqgMX2ETHvf/xBl3oV+47FKSePPQwdsLh9XStCrIJ6Duu55dQVWU8tmsYOa+tZhyLEp3Pnpot/S3tKEwfK0jfiLWkNrzZtgn5IeCqo+JMkXDcfz8Ld+/ed8e7TJrBuo3pl1aSZyGLiIwTKhqVahuSLyWWjN4Jw67duaf/XuSsvo92TzghaftrUrjH1pmj+yZsTmnLOJwubjw2zIoQwxuSbZWOy2L1zr4ifNh25P3RUA0524sFk7+6fBluIHx3bdz2o/2zpaG/Wv0e9ncf/zhwU4OXm61n45/59p737vMkYt5Ic8IIABCAAAQhAwKwF5PPjjIwMycxY9qJ4gZ1Gzuk0oij1700L5o+aWvD7spjyc+K8nDxLNw/H8j9jxnF2c5EvQ1s4u8hOUFwuRyymaUIL7h5Zv37/hdQCmsMV5aQIfTpXTI8Jx3/QD6vdt21aPz52oXv79z799L3mzhxmJrKM8PG1FsjIyPD29mYjKBu9EbKzlqGtIsiS89fvOZ3OiRjRzJpYNe3QqmTJqZu9HZJzmvRvZkPKxuTv6/cnpxaIK8Ykxe/Q+60Vyw/fGBHkeuLw9Ua9pvtziOj50+clN3/5uM+msui0sNjKvVURXWncDpKN24ocZLngIwQgAAEIQAAC5iYgnx+rzpzi+bUbOebykTHnbpbElM9OOI5OjqWp2YU0cZZMkWlBQaF8uktRSn/9t+Tij58vvt93RfzXoQ5c8ZNto987pdAYZV+/y0dzuozMv/Xn/KmTFrnumd/NQSmIwhV4AwG1AtbhrcMLN5/YZ5PVrF+kDSGkTniHloKfjx2wT23UPtKBIiXJqz9f/IAxJgeWjUnb1r2ilsw7eqWHx5H74X2/K9vqw3fh14l4b8MP78i+75O1zBy3UyYtctkzPxrjVoaDjxCAAAQgAAEzFpAv/DI7IU5PPpF8LzO3qFT0KufusT1/5waGBEl+Jl324gR0iPK9/seGc89FhJRk/bPt4B2R7Jyqj8K8nAK7gNBABy4RF945fOIO87fziPjp7atpBcKyTcrB/g7iVyVqg6lqAGUQUBSg7CJah6QdPvIorF0Lu7LvtaybdYh8enDfHf/WLdw4hLCNyTrh73Srk7R5zdEnbd7pwJdcyQns2rPRfxtX/u9BoZgQ8aucBzceSfbUK43bUoxbxZuAdxCAAAQgAAFzFVC9fkwX3tm/dNvc1KeFJVy7ug1b9/p2QVwgh9ws76VFww/mTsldsGBAtyIrJ/+3Ylo2trivBoD35rAxCXPnDh7s6GTtFNK7W+e6iYzadE7yutkTrz0TWtap41S/47QvupVNSxg1cAgBXQUo55atA4uv2LVrJVv15UVENRcfvRPZ0lfyPSHvzQ/GJHw7d/AgRycbhTFpEdzzbYfBa3JjVrSxkzbK8X9vwSJ6xY+T+s7PfkVbu9SPGvVtsL8DnXNh3eyNsnHbCeNW11uE+hCAAAQgAAGTFaBy814QItkeoX5/p5oOiFM3jnj/cv99S3raq6mFUxCokgBjfKrYfMM4W6VWcDEEIAABCEAAAhBQvb9Ck0tJ2tXkh7klNCH0y/QTG/Y+qN88zFbTRTgPAQhAAAIQgAAEIAABkxdQvb9CU9r08+T1C766+UQgoilrjybdZs7u76ffTFtTSzgPAQhAAAIQgAAEIACB6hTQb35cJ3z48m3DqzNPtAUBCEAAAhCAAAQgAIHqEMCqb3Uoow0IQAACEIAABCAAAXMRwPzYXO4U8oQABCAAAQhAAAIQqA4B1fsr+E6O1dE42oCAJoHcvHxNVSqf5zs5VC7CewhAAAJmIhAQMDElJd5MkkWaEKi1Aqrnx4SQCxcu1NpOo2NmIhAZGWkmmSJNCEAAAhCAAARqjwD2V9See4meQAACEIAABCAAAQhUXQDz46obIgIEIAABCEBAtQAvqMfUTZeeZa7tZiWtwPHstSTxXnp6+v3TPw6sJ/khrkKJH1d1HJRCAALVKYD5cXVqoy0IQAACEHidBDh+/SfF8Q5tSsiT/J1aycu+x9wFDbdE1/MNm5ISu3rxADdKsWR6LzsVfyO0/GJ8gAAEqkkA8+NqgkYzEIAABCDw2gmIU9ePjpu985ZA9o+tZXjnFlc3bL5Ph40eH3jxcnDX1naKJUFt/esoMXGDpyWd+Gnuum079hz7N3Hd4PoWhHB8+sQfv3zt0qXLV8+s6O2KSbWSGgogUAUB2adsFULgUghAAAIQgAAE2AU4HNk/thYedUlmeqn/8O/6JH857dBTD2/Xugolz10d+armunUiGmTNixvQJ/r9AyFffRxpSdV9Z0z0lbERzZqFv9Fh0qFs2fo0exI4AwEIaC8g+5TV/grUhAAEIAABCEBAPwEOxeG49fnm4+fzv0sqENG0mK5cQquc6oruJZ1KExEiSn+Uac93pOisw7+dbb9yzw+jOvpZvCrVLxlcBQEIsAhgfswCg2IIQAACEICAoQWEmZmcngu/dFk7669sytuP//RxToZCiePzF/mqJsh0yasShXLRw60ftOk267zXuL1n1/f3wr/mhr5ViPd6C1TxM6r4zPzenUesvyd+vRXRewhAAAIQgIAWAqWXjiTZ2F9csy2V8uz9YZeUhHMFiiXpZ1JfahGHUHbuHnaipxe2fj1+bVaHTiGsf81Am2CoAwEIVBJQ/xlFP//z03e+O1eicJFl5JS/Vg9wL5tZ1/Fr1bOXf5ibqs1SChfhDQQgAAEIQOC1E7BoOua3BX1C3/ByC913cPCfk0f+9L85ozZvWnYjbU1p5uEZg7Zm0aUKJZP3uiksE7OJcbz6rNg2riERceu8urbgo9OK/1CzXYVyCEBAOwEqN+8FIZJPxoyMDG9vb+lVfCfH8r+fJxaWCMWElF5Y3G+OaPruaa0tCeFYWFlUcd1Zu+RQ6zUXiIyMrPj70ozxqeK7McZZgr8v/ZoPG3QfAmYtgL8vbda3D8nXGgH168dlc2HJI80pyYSYtrSysrKUdp0uSJg/ckli9osXhSWBH23a9FH9shlzyYkv391p8Ub+uX9z6vXp53P5r5PpDr3mrx0fwSN00b0Dq5auP3bjWYmV+xsx46ePauuBx6DXmoFkQh0JCJhoQtkgFQhAAAI6CuCLmI5gqA4Bwwtomh+ztUjZd/xyR8cv6Rf7P++1hVmJzr9V1Hbnjs7f9/nqUKO129Zc+GTskWujI1oWnPhu/LLnsQs3xzfjF5xfPu7LmU6/rhnsh3VoJh6ODSGQkhJviDCsMcx3dcd8MyeEmG/y5ps52Fm/ChjzhPkOGPPNHEPdmCNaXWxTHjOGn59y/Zs2cbL19Ha1bxIRbOPq5lyUmycUPzuxK9Hu3fHDm7taUlznFsP6Nrp1LDEDv9anbtzgHAQgAAEIQAACEIBA9Qvou37MninHxs6WIkUcjq0dj0NRHA4Ri2n6+dPs0vQdE7rvKb9QXMpxa/xCq19CYG8KZyAAAQhAAAIQgAAEIGBgAcPPjwmHlP3+VNnUWJYt5eLmYhXS57efB3sbfsVa1gg+QgACEIAABCAAAQhAoKoC8tmq6r/YU9X45ddzXDv2afN4+8o9N3Ikf+VHXPz01sU7OdheYSDe1yGM+vFJqz/9OgChjxCAAAQgAAEIGEhA3/Vj4X+/jP1mb2pOXt6LYuGZ4V3/5Ls0fG/eD/3Y0uK4dpu9XPTTyrlDVmYWEwsbt4YdP5wR3pCtOsohAAEIQAACEIAABCBQIwJazo8tW04/dJSZoEWTkWt2jGSWSI8bzE/oJDlyHr11d1lJzx9O9iw7oHj1e3wW3+MzaT38HwIQgAAEIAABCEAAAqYoIN9fIaax3cEU7xBykgqoH59i7K/AQIEABCAAAQhAwEAC8r+fl5qW5ufrKw3Ld3LEhk4DCSOM/gIURVX8/TzG+FTx9/MYZ/H38/QHx5UQgECNC5jyE2FrHAcJQKDaBFj3VxQVFVVbEmgIAhCAAAQgAAEIQAACJiIg319BxHgasYncFKShSkD9+FR/VlU8lEEAAhCAAAQgAAGVAqzrxyproxACZiCg8hs9FZsyDNQVlc0ZKLYkjPEyJ4SYb/LmmznY1Xx2YLSrxMFoV8kiLTTemAH7683OWD9WA4FTEDAjAapsTsn8f6Ixs09Uao7ZdBWPjZo5IcR8kzffzMHO9kmB0c72hQqjvUbGDNhfb3b5/BhPAGD70oRyUxBQPz7VP93CFPJHDhCAAAQgAAEImIuAfH5sLhkjTwhAAAIQgAAEIAABCBhPAPNj49kiMgQgAAEIQAACEICA+QnI58d44LE+d090a3nvsJCQkJAAd8fG086U6hOj7JqShAn1Az89VqJ3gNp+ofrxqf5sbbdB/yAAAQhAAAIQMKSAfH5syKivTyxu8Pi9127evHl5RU9b4/0WrXpPccGdA0tHdQxyaTAxEfNr9VY4CwEIQAACEIAABDQJYH6sScjUz4tux8f2Xng9MLqdF26mqd8s5AcBCEAAAhCAgBkIyKdUNC02g3xrMEXxs7+Xj3o7PNCD7+QWENlvxSX1a7Wixwnff9Ah1M/b279xxxFLT2WJynPXHKfw4vdvBzX/dF+m7BJ1veY2Gn/wv1PrJnXxrd3PslY/PrG/Qt0YwTkIQAACEIAABHQRqN1zKl0kNNQVP/pt5MBlnC9+TfijjSd5evNmUZClmkuEt1YOfX9b49WHbvfyI4/+mhQbN5R77OD4RhYa47y6+9uIwb/X/W5//Dte3IoW6Ofbh785TWH7hNVbc5M2xrlTxMLSgpBSoRDf31Rw4QACEIAABCAAAQjoLYD5sXZ04sxDf5zxHZkwoUOAZNLqE95S7XWi27u3Xoscv62Xvw1FSEDMrLG/hP208+aYrxo/YY9D1anDzdg9rv8ievKenwYGKEy/Kefe8UlRr5h/zoeq4+CqsOWZeVJtdjgJAQhAAAIQgAAEIMAqIJ8fi7H8yKpEiPj50+eUT4CvfEVXTWVCRNlZOXY+Pg7l81eK7+Nt8+zJM7H6OOLr8cMOXn5u1cvbxapSeDpnz7g2U04yt3RYtZ1/ZssQd4UpcqWratNb9eNTLMZ3B7XpbqMvEIAABCAAgZoUkM+PazIL02+b4+zqTLIyn4iIozZTZK67p1vhmdQ8mpTNX+mctIxi11auHKIujvj5U58l/1tDze069tPNx7cM8We0RPFj4pPav2ROAilrJ8X1Y9NXRIYQgAAEIAABCEDA9AXkv59n+rnWZIYcr669wu+u+/rnc0+KxcKi7PsX/stUs+DObRgb1+ziirn7UoppuvjR3nmrLoYN6htqQdTFoRzefDfa17Pn4h/7P/jyw2XXXjI7zOG5eHkrvLxcbHH3mEQ4hgAEIAABCEAAAoYQkM+waKJmvmeIpsw7BrfB6N83D7fcOqy5j0vdoFb9Zh5IlTxdovTc/Ojw0CBfv2G7XqT82DugXkizmOXXhITb4JMNm+IKlvQI9vFpGL04d8CGjeNDJIv1LHEYOJRDu1k/fyr8YcScpHzmejGjisKh8Gp8n1aRbT7cnJ61c3SbyBZdvvlH/z9TohDZpN6oH5/qz5pUR5AMBCAAAQhAAAImLoD9FVrfIAuvzlPXd56qWN+y5fQjl6crlknfcdzbf/5b4ufKp1TGIVYdl917KKtsEz41Ib1SS7JzSh8tmk7cc3aiUjEKIAABCEAAAhCAAAT0EcD8WB81XGNmAicJmWO0lE8aLTIhxKiZS+MbL32jJg92thsHdjUybKeqXm449hQSXzkdjPbKIrL3hmOXRWR8BDsDQ+Hw9WCncvNeECL5Mf7dO3cbNGwgJeA7OQoEAgUOvIFAtQvY2trm5uVLm71z527D8vGp4pEdiqPXodozRYMQgAAEDCMQEDAxJUVpimyY2IgCAQhoK8C6fszj8bSNgXoQMCWBgADsNjGl+4FcIAABHQXwRUxHMFSHgOEFWOfHRUVFhm8NESFgfAEsvRjfGC1AAALGEsD6sbFkERcCugjIn18hprV5WIIusVEXAoYToNWOTzGNp68YzhqRIAABCEAAAq+3gHx+/Ho7oPcQgAAEIAABCEAAAhCQCLDurwAPBCBgEgInCelgEokgCQhAoBoEVDy/ohpaRRMQgICigHx+rP7n14pX4R0EqltA/fhUf7a6czV4eyqe2GHwNhAQAhAwCQHsPzaJ24AkXnsB7K947YcAACAAAQhAAAIQgAAEGAKYHzMwcAgBCEAAAhCAAAQg8NoLyOfHNJ4A8NqPBlMGoMXqnlBRa/dXnCQkypRvC3KDAAQgAAEI1EIB+fxYr84Jjk1o7Nvph+siva6WX1TlOCXHxwaFTv67VB5S4ajK8RWi4Q0EIAABCEAAAhCAQK0VqOL82Dqo06AhsS09qxiGGCoO231SHV98f1mXsElJbJNq5WCiu0uj+M4evr4B7b5NFhJChBdmhDvaKrwcwqafVReRzr+wekT7hh7Ozp4hHUf9fKmg/LHTwsvzowJ8fT2c+W0X39bl+w22gIYqJ+KCOweWjuoY5NJgYmKJHMVg8eUhcQQBCEAAAhCAAARqXkA+sVX742u2RLmBMTPmj23rXNXfrzdIHIpiTUN1/NKMRxm6zETLFKy6Lr+ZlpI0M0Ly6A+LiDnnnj6veD0+9GkDz7fah1qyeRE6/8i0IUty+62/9Ojh6TkBxyfHzUgoLKttET79ZEra7VXdrVgvVnWCLaChyonodnxs74XXA6PbeckHC2HtiK7tquqTyjJ1uysIEYuV/7oNx7PXksR76enp90//OLCe5HbVbInKbmlZaKjMCS+ox9RNl55lru1WPs70i6xl2qgGAQhAAAIQME+B3LwXuXn5uXn5f//zr/QgNy+fECJQ/yrM3Doi2NeDb2fFsWw649wLee0X9/Z/3T/S38XJyTWg5cC5hx4wzslryY7Y4uTuHe7deuKyqe+2a9U8NMCn0dtfHUwplF2k4mPu3uGeQYNmTu4e6uVs7+T/1oc/Jz+TVGOJn39qdlt/V/s6XIriWtWRvBxi12eVxS3MTFj0Xkt/vq2NrWPdRlHTD0mLy869uDy3hV2vXxklzFQKH/3+rnuTaafzKgoLU37rW9e91093C2RFz7YNdG0y/d98gaDgxqpoz8B63q4DtzHiPVvfx67ZnItqzWSxyj6yBTRUuUAgyM/LFwjyEz9v6PPRwVxZ4waMLwup/JEQUjEm/z5dMT5flA1ahf+Xjd7ykvJPRPtev/y3b1SQFcXvuyXr+a7BblTNluj39eFk2WWGypzjN+zHzV/HfbHjxk/l82P9IuvXF1wFAQhoIRAQMFGLWqgCAQgYV4C5JKhLS5Rj7xXJtx6k3V4ZXYd5nfDWyqHvb3OcdOh2evqtAxNsNsYNXXVbyKyheMwWhxBSev7X3fwZu08knb988MOi5ROWXVAThxAiStl7oHTs/htpaRdXRZz/fMjCCyWEsMS3iJhy5MajR5sH8n0/3puVk5OT83hjPztJauKMrbO+vt1xw/XH2VkPz/+xYNAbtooZs74T3Vm/6tQbn4wIk68eUzZ+zdq1a+5vJ1vYFqXfuSduHN7AQpy2edJ32SN+md/V8vaNVM2L2PTz7R80ClR4NRqy+SnNFtBQ5ZLeWlhaEEILhcwVXEPGZxWt0gnL8M4trm7YfJ8OGz0+8OLl4K6t7Wq0ROHTRMeeGaovdcSp60fHzd55SyD7vNcvclX6omPXUR0CEIAABCBQAwKyfyclTTPnP3qmIrq9e+u1yPEze/nbUJRNQMysseGXN++8qX5iy9aWTYdhw4JtCCGW/q1aeD5++Iix+VXVNbzO46ZEeVgSS4+ozz5qmXrgwA092uU41m/glvnP7v9dzxbWcQ4KC3KUzW1VNckoEySu/uXJO2P6ezNJ7Vp/9vuGqe0cZDFoQUGRjR2PZGybPDdz6NLPmrs62BYXFCnvDWAELjuknHvHJ/2r8EpaGetKsQU0VDkzD2aWxojPbEv5WP3zK5RHr4VHXZKZXuo//Ls+yV9OO/TUw9u1bk2W8GVjQLlrGksM1RdZDhyObJDqF1kWR2PiqAABCEAAAhAwSwHZv5MGSl6UnZVj5+Mjmw9SfB9vm2dPnuk186bs3Fyty/OS/IOu6RFeHCdPT560PuVY18Mq93mOPu3ad/nh2MZ+rzYOjQzr/PGSoymvtKIRZ/6xYpfT+6M7lS1Cs15C2drzivLvbp/6zaP34r+IsJFMM3kOtpqnTnTOnnFtIhVebUbvyqbZAhqqnK0nxo7P1q4O5RyKw3Hr883Hz+d/l1QgomkxXbMlOqSuVNVQmSsFJvpFVo6DEghAAAIQgEAtEjDw/Jjr7ulWmJaaV77USOekZRS7ergauBXV/uLcJ4+Lpafo/CdZJXxXZ43tUkTF73VZer710fd/Xbr61xjr7UPj4m9o3v1ASq/8vPp8q0+GN5b/vW6VSXJ9QoO5h2dNv9Nv6ZQWPCJ6dOXaqwaN/LgqKzMLKX6M8vrxu64UW0BDlTNzYB4bOz6zLf2OhZmZnJ4Lv3RZO+uvbMrbj//0cU5GTZbkM5ffteySdPMxIYbqi3IO+kVWjqNlh1ANAhCAAAQgYBYC8hmkqicA6NwFbsPYuGYXV8zdl1JM08WP9s5bdTFsUN9QDbNGnZtRfUHx8TXLTmcLifBZ0rJfzvn17KGpXa67h0vO2YQrkkesCYuLy57KJs5MPnk5s0hMOPZ+YfVdqGJBscaJDZ13aMWGgtgxsZ6VFoLpgn9+GD58yT+yZ7gRwms3KNZV6B3V0Y8ufHLup6/WPH67X4fyVW/VvSov5fBcvLwVXl4uthz2gGwN6VrOlpSucdjqs8VXKlf/4wPl0Vt66UiSjf3FNdtSKc/eH3ZJSThXUKMlL5V6pFVBFCEniaH6opyDfpGV42jVF1SCAAQgAAEImItAxfMrTiX9U/GsAM3Pr8g7Oat9cKCXi+QREBxLW2fPgJDoBWfzBQJBwcND3w6I9Hd1cnL2bfbuzL131T6LgS1O7t7hHnVH7Ct/XEL+35OD7WJ+f6r8hANZieR5F+0mrZwUHeLFt3fye3Pk2gtlz69giy+9ruDhvundQz0c7R2dPNrMOS1J/0Xy8r7h/m58J0dHSf5zDjEfm6H6+RUFVxe+5dBs1nnJ5Yqvwvu/9PFwj1l3n/HojcInf8fHtfC1t7K09WzWf/7xDMY5gUDn51cIBGwBDVWef2Ze1yYhIYEudSz5/sEhoW2mHi17Qoeh4iuSKbxjPr+CMT4VnlwhfZZF2VnF51cQjmf3hcfvpKenPzy3Li5I8luTNVui+5cE6fqx5P+Gytyi6ZiNB48mZxSmnj9y8PdRjbl6Rta9L7gCAhDQTgDPr9DOCbUgYFwBKjfvBSGSFdJr1/4LC2sibY3v5CgQCIzbsjlGF91d2rntv6Pvbx+ofpux/n0r2hkXGB9+KnFyI817LvRvxVyutLW1lT5tUHF8Vlqll/Tm2rVrYWFh0n7xnRzMpYMa8pT+cWn8iWkNTDgNgVolEBAwMSUlvlZ1CZ2BgBkKyHc+0GWzZKN04dWB0U0+2a/8Q1nr7iuvrI3RZneBNC1DxdG7kxTH0tri1OSwwK/8P9xx7Kvmcj29Q1ZcKLyyMLrvmgclL7nBLeW7XipOv/YHYrXjs/Lo1bgnxiw8pd8IREm/gTWLjJEkBCBQVYEUgslxVQ1xPQSqLiBfP7567VpT+QqcYdePX+U/zXupPGWhrB3dHK1VrAay9ctQcdjio9y0BJjrx1euXXujfHyqGARr2mYAACAASURBVDFXr11tGtZUmn3tWT82rbuBbCAAgeoQwPpxdSijDQhoEmBdAeXxtF/X1dQI4fEC+BoraVHBUHG0aApVzFYAu/fM9tYhcQhAQCKAL2IYBxCocQH5/LjS8m5RUVGNJ4cEIFAhoGLRuOKc4gYEbN1jwOAQAhAwMwGsH5vZDUO6tVQAO11r6Y1FtyAAAQhAAAIQgAAE9BLA/FgvNlwEAQhAAAIQgAAEIFBLBeT7K9T//LqWdh/dMh8ButIOIIXMa+3oVddpBQETfVNrb4yJeiMtCEAAAhAwiADWjw3CiCAQMI5AIiGU2f6XaBwTRIUABCAAAQgYWQDzYyMDIzwEIAABCEAAAhCAgFkJMObHan9+bVadQrK1UEDDRgOM3lp4z9ElCEAAAhCAQM0IMObHNZMAWoUABCAAAQhAAAIQgIAJCZj4/FhwbEJj304/XBdVkcxQcbROQ3Rree+wkJCQkAB3x8bTzpRWulBDPqV/Tw71/+RISaWr8BYCEIAABCAAAQhAwOgC8vmxhp9fGz0TlQ1YB3UaNCS2pac8TZXVNBYaKo7GhmQVuMHj9167efPm5RU9bVX8Cr8h86HzL6we0b6hh7OzZ0jHUT9fKjDJOymDMdLH17HPRqJEWAhAAAIQgMBrLyB/vptJUnADY2bMN0BmhopjgFTKQmjKh1Ixp1bdNp1/ZNqQJbljNl06EPrq4MSuo+JmBJ1b1slOdW2UQgACEIAABCAAAQhoEKjqwqyG8HqfpvP3josIrufjwbd3ajOfub9C9Djh+w86hPp5e/s37jhi6akstXsv2OKUHB/bsPNX674Z8nandi0aN2re97vEZ2rWIEv+nR7uN+SP3PIqdPaWAV7hX54tIYTOOfX90E5h/nU93OsGRsbOOpgmVNdptnwIEfy3YVx0mG9dT9/G3aYczuJqOUMuPrXjoOPwb8a08bLNS9yeZO0r3LMpoVBdCjgHAQhAAAIQgAAEIKBGwFTnx5Rj7xXJtx6k3V4ZXYeZvvDWyqHvb3OcdOh2evqtAxNsNsYNXXVbzYyULQ4hpPT8r7v5M3afSDp/+eCHRcsnLLvAHscqcnB/z4QdB7PLJsj00wN/JPn1HxxhRQjl6NO898w/r6Q+ybp3dKL9jtGz9hcwE650zJZPyYWFw75ICvo26WFmyqnZTkmHUhSn/fTz7R80ClR4NRqy+SktSr9zT9w4vIGFOG3zpO+yR/wyv6vl7RupihdXysE839J4QoV53jhkDQEIQAACEDA7AVOdH7NAim7v3notcvzMXv42FGUTEDNrbPjlzTtvsk9sWeKUFdt0GDYs2IYQYunfqoXn44eP1Pw+nEXowEGN/tm+74mYEPHj/bvOhg5+L6Rscwq3Xqf+HRs4WVGUXYN+A96iH9x/ovvsVHjr8OHUiFHTewfYUFyXNyeM7sRTzJxy7h2f9K/CK2llrCtFCwqKbOx4JGPb5LmZQ5d+1tzVwba4oEjNUrhiXLyDAAQgAAEIQAACEFAUMPH9x4rJEiLKzsqx8/FxKN98QPF9vG2ePXkmrlxPm/eUnZurdXlFDodD1C9Qcuv1G9R88Y496R+MovbtuhQ5eE0gV3IxnX9p44LFm07ey6M5HLowvYgfrEc24rzneRaePu7Sb1coWy9vPkfA7ASds2dcmyknmTN4q7bzz2wZZGvPK3p4d/vUpY/e2/hrhA19vKCI56fqVwKZ0XAMAQhAAAIQgAAEIMAmIJ8fq58esl1fzeVcd0+3wjOpeTRxl0yR6Zy0jGLXVq7VsQrO8e4T1/bbdbvvd+XuutF25EbpMzVeJs4eNC972l9HNwbbc8nLAyMbLtCHhOPsyhfde5ZHEw9Jv0pycgpohX0lFD8mPqn9S+a6MGXt5Epx7UKDuYtmTff/6M+fWvCI6O6Va68adPUrm7rrk4i5XmMWo9dccZE3BCAAAQhA4DUTqI6ZpQFJuQ1j45pdXDF3X0oxTRc/2jtv1cWwQX1D5bN8A7ZVORTl1mNw55Qdixdtf9glroeLdAlb+Dz7Ba9ugIctly7OOBW/+n/6/WqcRaPuPQLO/7w04UkpEeUnr1lztJA5FSaEcHguXt4KLy8XWw4hvHaDYl2F3lEd/ejCJ+d++mrN47f7dai0OaNyT/AeAhCAAAQgAAEIQIBVwFTnx6XnF3aPaNLAP3jcUcF/CzsG1G8cGbviPyHhNvhkw6a4giU9gn18GkYvzh2wYeN46T5g1V1ki6O6toZSxy5x3Z9u3fa055DO9uVV7d6eNDv89MgQT++g1iN2evR9108qWnpufnR4aJCv37BdL1J+7B1QL6RZzPJrQsKWj2XzKRuWtro0LtLXp2HU17mxw1tYakhGdtou6ptNC5qd+7S5r0/TwVt4Yzcs6uFUvv1EVgUfIQABCEAAAhCAAAS0FqBy814QIlmrvHzlSvgbb0gv5Ds5CgQK+1+1DoiKEDCYgK2tbW5evjQcY3yqmP5fvnI5/I1waU2+k4PBMqjxQCcJiarxJPRNwKyT17fTuA4CVRQICJiYkhJfxSC4HAIQqKJAtexMqGKOGi9/dWB0k0/2v1SqZ9195ZW1MdpvNjBUHKVEUFCtAnOqtTXjNnbSuOGNG/0kIbXpXhgXC9EhUC6QQjA5xmCAQM0L1Ir5cZ0uC/65MKfShl1CCGXtKHl8m9YvQ8XRukFUNIoA5mRGYdU9KG6E7ma4AgJYP8YYgIApCMjnx5WeAMDjab/uWuMd4fEC+IZIwlBxDJELYigKVBqfiicVHs4XEDCx0lm8hQAEIGBGAvgiZkY3C6nWVgH5/LhSD4uKiiqV4C0EzEIAW/fM4jYhSQhAQKUA1o9VsqAQAtUsYKrPr6hmBjQHAQhAAAIQgAAEIACBMgHMjzEQIAABCEAAAhCAAAQgIBdg3V8hr4IjCECgFgucJKSDuXWv4hF/yr+Va/pdMd/kzTdzya9ry0aGyY+Zys+vMJ/MZcSMj+abvPlmblajnTFWTO4Q68cmd0uQEASqW4Aqmz2Yy/8TGTyJZpU5RYj5Jm++mZsbe0DgRMlsXvof2CsoqvMA7NWpbaptYX7M+LcWhyYsQJv8qo8J49XS1Mz674+Yb/LmmzkhxHyTN9/MwV5TX4DNeszUFBqjXcyPGRg4hAAETF8gqmyWY/p5qszQfJM338xJ2R+hNNM/tQN2lZ9Hxi4Eu7GFzSE+5sfmcJeQIwSMJIAFBiPBIiwEIAABCJizgHx+rPbH14JjExr7dvrhushU+1pyfGxQ6OS/S1nyM/n8WfJGsVyg4rcl5EXyI7WjV14NRxCAAAQgAAEIQECjgHx+rLaqdVCnQUNiW3pqWV1tLO1Piu8v6xI2KYlt0qt9IKI6f53ji+4ujeI7e/j6BrT7NllICBFemBHuaKvwcgibflZdxnT+hdUj2jf0cHb2DOk46udLBeVTO+Hl+VEBvr4ezvy2i2/r8n0IW0BDlRNxwZ0DS0d1DHJpMDGxRI5usPjykDiCgNYCZr3ybb7Jm2/m2AWr9eeWgSua75gx38zNerQbePzpH07LCS83MGbG/LFtndWu4emfBcuVpRmPMnSYKVIUa3qq89cxvjRLq67Lb6alJM2MkDwazyJizrmnzytejw992sDzrfahliwdIoTOPzJtyJLcfusvPXp4ek7A8clxMxIKy2pbhE8/mZJ2e1V3K9aLVZ1gC2iociK6HR/be+H1wOh2XszBYrD4qjplmDKOZ68liffS09Pvn/5xYD3J7arZEsP0yjhRDCVDeEE9pm669CxzbbfycaxfZE29jKqooF98ba7Sry8VibEfVEfyyh3UpjvsOUvP1Ezm2vRFU+bSLciyWgYapcqJ6VciS4vtozp2bW6rfllpcxVbxoxydckrN1Gd3WEkqfJQt8yrsy8q01UsrGryxuuOYp4m/i4370VuXn5uXv6Jk4nSg9y8fEKIQPoqzNw6ItjXg29nxbFsOuPci/JigUDw4t7+r/tH+rs4ObkGtBw499ADxjl5LfmR6vo5m2LtGnyWmC+tl3voYx/XoX/mCvJPzW7r72pfh0tRXKs6kpdD7PoseTClo9y9wz2DBs2c3D3Uy9neyf+tD39OfiapxJK/mviFmQmL3mvpz7e1sXWs2yhq+iFGsy8uz21h1+tXRgkzkcJHv7/r3mTa6byKwsKU3/rWde/1090CWdGzbQNdm0z/N18gKLixKtozsJ6368BtjHjP1vexazbnogZLWTSBQMAW0FDlAoEgPy9fIMhP/Lyhz0cHc2VNGzC+LKTyR0JIxZhkjM8XZYNW4f9lZ8tLyj/j7Hv98t++UUFWFL/vlqznuwa7UTVbYppfCKS/tGQoGY7fsB83fx33xY4bP5XPj/WLrI2VYTNXzlO/vmiTuXRphxCi3KjxSrTpjjbJG5tdGwHlvmiTeQW78uXaNGq8OkrJBwRMrFzGxl6zfamcJct7tuSVSauzOyzJKhRrn3l19kUhRfY3VUneeN1hz9cEzzCXBFWlRzn2XpF860Ha7ZXRdZjnhbdWDn1/m+OkQ7fT028dmGCzMW7oqttCZg3FYx3rW0RMOXLj0aPNA/m+H+/NysnJyXm8sZ+dYsjK70Qpew+Ujt1/Iy3t4qqI858PWXihhBCW/NnjizO2zvr6dscN1x9nZz08/8eCQW/YVm6I5b3ozvpVp974ZESYfPWYsvFr1q5dc3872cK2KP3OPXHj8AYW4rTNk77LHvHL/K6Wt2+kal4kp59v/6BRoMKr0ZDNT2m2gIYql/TVwtKCEFooFDM6bsj4jLAGPLQM79zi6obN9+mw0eMDL14O7trarkZLFD59DNhPQ4QylFUdcer60XGzd94SyL6u6BdZeyv94mszEvTri/aZE0KMl7xyB7XpjvbJV2fm2vRFt08CA41S5cT0K6kKuza3Vb+stLlK+8y1HO3V2R3tk9dvtBuvL9pnriW7VvfaQJ81OiWv2+e1EWrL/h3TMbTo9u6t1yLHz+zlb0NRNgExs8aGX9688ybrBFnX+jqmI63O6zxuSpSHJbH0iPrso5apBw7cYM2HPT7HsX4Dt8x/dv/verawjnNQWJCjbG7Lfk3ZGUHi6l+evDOmvzeT1K71Z79vmNrOQRaDFhQU2djxSMa2yXMzhy79rLmrg21xQZHm3y6jnHvHJ/2r8EpaGetKsQU0VDmz08wsjRGf2VbVjy086pLM9FL/4d/1Sf5y2qGnHt6udWuyhC8bA1XvmsEjGMpK1kcOR/ZJoF9kWRz2jkqXRgjRL742I0GWg259kV3FnnnFKqYxk1fuoCwxdd2R1WFP3vjsypkrl8jylPeFPWPGGVnysiL55cYbRcrJK5fIuiPLS/mjLHPlPGXX1kxfZK0rZ8woYU+enaI6uqM5eV0yr86+aM7cCF9kZI1W9dbI4jBGiAkfyv4dI4TW5Q8wiLKzcux8fGTzPorv423z7Mkz5gqjQqe1ra9TEgotEMJx8vTkScsox7oeVrnPc1jzqXQp8619lx+Obez3auPQyLDOHy85mvKKeZL1WJz5x4pdTu+P7qR+kZuytecV5d/dPvWbR+/FfxFhI5lm8hxsNU+d6Jw949pEKrzajN6VTbMFNFQ5W4eNHV+5XfVDQ8VZDsXhuPX55uPn879LKhDRtJiu2RLlLplOiaFklHukX2TlOMol0geU6hdfm6uUW9TvKuU4FY/j1Sagoeoop6EcWbmOcomx2ZWzUi5RzkrLEraH2io3UZ0l2iTPxq58rallrtNor87uKLelXMLGrg2ycjRtrtKmjnJklSVVSV45DeUmlOtoU6Icx4RL5PNjnZLkunu6Faal5pUvKdI5aRnFrh6urNHY61McIhaJyuO8zMrKV5jTUkTMXLVUm6M498njYmkNOv9JVgnf1Zk1H1kglfEtPd/66Pu/Ll39a4z19qFx8Tc0734gpVd+Xn2+1SfDG0t+C0zNi+sTGsw9PGv6nX5Lp7TgEdGjK9deNWjkx1VzifQUxY9RXj9+15ViC2iocrbEjB2frV3ty4WZmZyeC790WTvrr2zK24//9HFORk2W5Gs9kLXvY1VryhZIDGWl3Ef9IivHYeupfvG1GQnKOWjTlvJVbJlLnn5TjUNUOTHl1pXrsCWvfK02pIaqo32ebPlXKjeX7ijnqUyhXMdQ7MpxlFuvBMt8q01iygG1uUo5MW1KlNtiZss81i8H5fj6xVHui3JkZraVjo3XqH6RdUq+Ul+q/63GGaTqlLgNY+OaXVwxd19KMU0XP9o7b9XFsEF9Q1lnh6z1ub7+Xo+TDl96ISbCnLOr1iWUz3DLmuW6e7jknE24InkEmrC4WN1T0yT1i4+vWXY6W0iEz5KW/XLOr2cP9nykvVIVX5yZfPJyZpGYcOz9wuq7UMWCYo0TGzrv0IoNBbFjYj0rLQTTBf/8MHz4kn9kz3AjhNduUKyr0Duqox9d+OTcT1+tefx2vw7lq96qqctLOTwXL2+Fl5eLLYc9IFtDupazJaVrHLb6bPGrXF566UiSjf3FNdtSKc/eH3ZJSThXUKMlL6vcI6MEKFtjMJSVch/1i6wch63v+sXXZiQo56BNW8pXsWVOCNEmoDapalNHOTHl1pXrsCWvfK02ORiqjvZ5suVfqdxcuqOcpzKFch1DsSvHUW69EizzrTaJKQfU5irlxLQpUW6LmS3zWL8clOPrF0e5L8qRmdlWOjZeo/pF1in5Sn2pgbcVz684nnCy4lkB8udX5J2c1T440MtF8igJjqWts2dASPSCs5LHTRQ8PPTtgEh/VycnZ99m787ce1fDMxdY6hc+3DulS32+nb2LT+Pu01ZPfquu5PkV5a+Ch/umdw/1cLR3dPJoM+d0+VMuZGeZH3P3DvduN2nlpOgQL769k9+bI9deKHt+BXv+kqtVxH+RvLxvuL8b38nRUdKvOYdSCuXtqH5+RcHVhW85NJt1Xjm9wvu/9PFwj1l3nxGj8Mnf8XEtfO2tLG09m/WffzyDcU4g0Pn5FQIBW0BDleefmde1SUhIoEsdS75/cEhom6lHy57QYaj4cl6lI+bzKxjjU+HJFdJnWZSdVXx+BeF4dl94/E56evrDc+vigiS/NVmzJTXw2a2hSen6seT/hpKxaDpm48GjyRmFqeePHPx9VGOunpHVJi5b9iaGzFxZQL++qM2csS/QyMnr1x21yVcTu3LmyiXKt0Zt5pXZlS9XbqI6Syonr/D8Cg3sNduXyplXfq8heWXk6uxO5WQV3uuceXX2RSFTFW8MkLzxuqMiX5MtonLzXhAiWSG9eOlS82bNpInynRwFAoHJJl1jiYnuLu3c9t/R97cPVL/NWP8Ei3bGBcaHn0qc3Ejzngv9WzGXK21tbaVPG1Qcn5VW6SW9uXjpYvNmzaX94js5mEsHazhP6dPvze4Z+MyEmcc1rKld88yEmcfaXV2TtZjZMo9rMiet22YmzDzWOkB1VgwImJiSEl/eIjNb5nF1JqR3W8yEmcd6B6y2C5nZMo+rLYGqNMRMmHlclZiv5bWsOyL00Xh1YHSTT/YrL6Bbd195ZW2MNrsI1Ldq7PjqWyeEUBxLa4tTk8MCv/L/cMexr5obUk94ZWF03zUPSl5yg1vquetFY/6vTwWNe2JeHwo1PZV+oxEl/QZZTT0TPtUBydfE3QG7MdVTiGxyXKkVsFcCqZ63YK8eZ9NrxbDrx6/yn+a9VJ6aUNaObo7WKlb9dPUwdnxd80F94wpg/di4vogOAQiYnoDC+rHppYeMIPCaCLCugPJ4eqz38ngBfGPCGTu+MXNH7OoSUNi9V12Noh0IQAAChhLAFzFDSSIOBPQWYJ0fFxUV6R0UF0KgBgXkW/dqMAk0DQEIQEAvAawf68WGiyBgYAH5TlcVf2HBwG0hHAT0F1A/PtWf1b9VXAkBCEAAAhCAwOsnIJ8fv359R48hAAEIQAACEIAABCBQWYB1f0XlingPAQhAAAIQgAAEIGD6AspPSjD9nCsyNMDjHCpi6X+A9WP97XAlBCAAAQhAAAIQMDmBREIo8/wv0VQsMT82lTuBPCAAAQhAAAIQgAAETEEA82NTuAvIAQIQgAAEIAABCEDAVAQwPzaVO4E8IAABCEAAAhCAAARMQcBE5seCYxMa+3b64brIFEwMkYPo1vLeYSEhISEB7o6Np50prRRTQ39L/54c6v/JkZJKV+EtBCAAAQhAAAIQgIDRBUxkfmwd1GnQkNiWntWbjvj+si5hk5IqT14Ngc4NHr/32s2bNy+v6Gmr4jcxDdlfOv/C6hHtG3o4O3uGdBz186UCs/61VUPgIwYEIAABCEAAAhCogoCJPN+NGxgzY34VuqHfpaUZjzJE1TslL09UU38pFXNq1X2k849MG7Ikd8ymSwdCXx2c2HVU3Iygc8s62amujVIIQAACEIAABCAAAQ0CNTI7ZORE5+8dFxFcz8eDb+/UZj5zf4XoccL3H3QI9fP29m/cccTSU1ka9l6orv9q91CP8BkXhNImS0591qhs34IweVF0qL9/n3VpqWt7ezg7Ozt7Dt1ZyMir0mHJv9PD/Yb8kVu+NEtnbxngFf7l2RJC6JxT3w/tFOZf18O9bmBk7KyDaeVtVYpQ/pa9v4L/NoyLDvOt6+nbuNuUw1lcLWfIxad2HHQc/s2YNl62eYnbk6x9hXs2Jajpieq0UAoBCEAAAhCAAAQgUC5Q0/NjyrH3iuRbD9Jur4yuw7wpwlsrh76/zXHSodvp6bcOTLDZGDd01W01M08d61tETDly49GjzQP5vh/vzcrJycl5vLGfmjVXq8jB/T0TdhzMLpsg008P/JHk139whBUhlKNP894z/7yS+iTr3tGJ9jtGz9pfwOxIpWO2/pZcWDjsi6Sgb5MeZqacmu2UdChF8dsB+vn2DxoFKrwaDdn8lBal37knbhzewEKctnnSd9kjfpnf1fL2jVTFiyvlgLcQgAAEIAABCEAAAuwCNT0/ZslMdHv31muR42f28rehKJuAmFljwy9v3nmTdYKsa32WZtmLLUIHDmr0z/Z9T8SEiB/v33U2dPB7IWWbU7j1OvXv2MDJiqLsGvQb8Bb94P4T3WenwluHD6dGjJreO8CG4rq8OWF0J55iLpRz7/ikfxVeSStjXSlaUFBkY8cjGdsmz80cuvSz5q4OtsUFRdiCrMiHdxCAAAQgAAEIQEBrARPZf1w5X1F2Vo6dj49D+SYDiu/jbfPsyTNx5Xqy96z1G8pqSD/StL4zR269foOaL96xJ/2DUdS+XZciB68J5Epi0vmXNi5YvOnkvTyaw6EL04v4waxZKubCfCfOe55n4enjLv12hbL18uZzBMwKdM6ecW2mnGQ+0cKq7fwzWwbZ2vOKHt7dPnXpo/c2/hphQx8vKOL5qfqVQGY0HEMAAhCAAAQgAAEIsAmY6PyY6+7pVngmNY8m7pIpMp2TllHs2sqVdbWbvT7FIWKRqHxW/DIrK1/syLCgiFjbCTPHu09c22/X7b7flbvrRtuRG6XP2niZOHvQvOxpfx3dGGzPJS8PjGy4gBFe60OOsytfdO9ZHk08JP0tyckpoBX2m1D8mPik9i+ZyVLWTq4U1y40mLto1nT/j/78qQWPiO5eufaqQVe/sqm71q2jIgQgAAEIQAACEIBAhQDrjLOiRo0ccBvGxjW7uGLuvpRimi5+tHfeqothg/qGss7mWetzff29HicdvvRCTIQ5Z1etSyhm9Ifr7uGSczbhiuSJaMLiYg3PeaPcegzunLJj8aLtD7vE9XCRLm0Ln2e/4NUN8LDl0sUZp+JX/0+/X42zaNS9R8D5n5cmPCklovzkNWuOFjKnwoQQDs/Fy1vh5eViyyGE125QrKvQO6qjH1345NxPX615/Ha/DpU2ZzC6jEMIQAACEIAABCAAAfUCNT0/Lj2/sHtEkwb+weOOCv5b2DGgfuPI2BX/CQm3wScbNsUVLOkR7OPTMHpx7oANG8dL9/uq7g9bfYvmY78f6/JnbAMvv8ZvLxbGfdLaSh7Aotm4HybU3TegkaeXd8N3Vt5g3d5cfoljl7juT7due9pzSGf78iK7tyfNDj89MsTTO6j1iJ0efd/1k4qWnpsfHR4a5Os3bNeLlB97B9QLaRaz/JqQsPXXsvmUDUtbXRoX6evTMOrr3NjhLSzleao9sov6ZtOCZuc+be7r03TwFt7YDYt6OJVvS1F7HU5CAAIQgAAEIAABCKgSoHLzXhAiWatMvngxonlzaR2+k6NAoLD/VdW1KIOAcQVsbW1z8/KlbTDGp4rpf/LF5IjmEdKafCcH46aF6BCAAASMJhAQMDElJd5o4RH49RA4SUiUefbUZDJn3bFgiq6vDoxu8sn+l0qpWXdfeWVtTNU3FRg7vlLiKDCKwByjREVQCEAAAtUgkEIwOa4G5trexEmz7eBJQkzjH3Gzmh/X6bLgnwtzKm3MJYRQ1o42hhgKxo5viBwRQ7OAaXxqac4TNSAAAQgoCWD9WIkEBa+TgMn8C846P+bxqr4ea/A7yuMF8A0elBHQ2PEZTeHQaAIBARONFhuBIQABCBhdAF/EjE6MBiCgSYB1flxUVKTpWpyHgCkKYOueKd4V5AQBCGgngPVj7ZxQCwLGFajp51cYt3eIDgEIQAACEIAABCAAAd0EMD/WzQu1IQABCEAAAhCAAARqtwDmx7X7/qJ3EIAABCAAAQhAAAK6CWB+rJsXakMAAhCAAAQgAAEI1G4BzI9r9/1F7yAAAQhAAAIQgAAEdBPA/Fg3L9SGAAQgAAEIQAACEKjdApgf1+77i95BAAIQgAAEIAABCOgmgPmxbl6oDQEIQAACEIAABCBQuwUwP67d9xe9gwAEIAABCEAAAhDQTQDzY928UBsCEIAABCAAAQhAoHYLYH5cu+8vegcBCEAAAhCAAAQgoJsA5se6eaE2BCAAAQhAAAIQgEDtFsD8uHbfX/QOAhCAAAQgAAEIQEA3AcyPdfNCHcwRJAAAAI1JREFUbQhAAAIQgAAEIACB2i2A+XHtvr/oHQQgAAEIQAACEICAbgKYH+vmhdoQgAAEIAABCEAAArVbAPPj2n1/0TsIQAACEIAABCAAAd0EMD/WzQu1IQABCEAAAhCAAARqtwDmx7X7/qJ3EIAABCAAAQhAAAK6CWB+rJsXakMAAhCAAAQgAAEI1G6B/wM7K9TUIWG/4wAAAABJRU5ErkJggg==;" parent="WIyWlLk6GJQsqaUBKTNV-1" vertex="1">
          <mxGeometry x="-110" y="620" width="949" height="172" as="geometry" />
        </mxCell>
      </root>
    </mxGraphModel>
  </diagram>
</mxfile>
